<svg xmlns="http://www.w3.org/2000/svg" width="20" height="16" viewBox="0 0 20 16">
  <path id="Icon" d="M10,16A8.306,8.306,0,0,1,4.932,14.2,17.989,17.989,0,0,1,.489,8.857L.283,8.5,0,8l.283-.5A18.676,18.676,0,0,1,4.814,1.9,8.354,8.354,0,0,1,10,0a8.306,8.306,0,0,1,5.068,1.805,17.99,17.99,0,0,1,4.443,5.338l.206.358L20,8l-.489.857A17.99,17.99,0,0,1,15.068,14.2,8.306,8.306,0,0,1,10,16ZM10,2A6.424,6.424,0,0,0,6.048,3.468,15.96,15.96,0,0,0,2.3,8a15.961,15.961,0,0,0,3.743,4.532A6.424,6.424,0,0,0,10,14a6.373,6.373,0,0,0,3.845-1.386,15.19,15.19,0,0,0,3.642-4.27L17.695,8l-.208-.345a15.221,15.221,0,0,0-3.645-4.271A6.369,6.369,0,0,0,10,2Zm0,9a3,3,0,1,1,3-3A3,3,0,0,1,10,11Z" fill="#54b948"/>
</svg>
