<svg xmlns="http://www.w3.org/2000/svg" width="48" height="48" viewBox="0 0 48 48">
  <g id="Group_50163" data-name="Group 50163" transform="translate(-1400 -808)">
    <path id="Path_8994" data-name="Path 8994" d="M5392.654,832h10.754l-8.454,11.574,1.045.089h4.376L5396,846.839l-12,7.987,6.013-11.583-2.776-.065,3.425-6.92Z" transform="translate(-3980)" fill="#54b948"/>
    <g id="Group_50108" data-name="Group 50108" transform="translate(1400 808)">
      <g id="Group_50109" data-name="Group 50109">
        <path id="Path_8991" data-name="Path 8991" d="M3.347,48a.478.478,0,0,1-.424-.7L8.867,35.953H6.789a.478.478,0,0,1-.43-.688l2.6-5.336H6.215a6.216,6.216,0,0,1-.871-12.37l.438-.061-.027-.442A7.579,7.579,0,0,1,8.13,11.125a7.878,7.878,0,0,1,6.554-2.166l.4.054.123-.38A12.465,12.465,0,0,1,26.868,0a12.491,12.491,0,0,1,12.2,11.365l.031.4.4.039A9.311,9.311,0,0,1,48,20.846a8.865,8.865,0,0,1-2.226,5.818A9.582,9.582,0,0,1,40.3,29.777l-.19.035L36.4,35h4.807a.478.478,0,0,1,.268.874L36.653,39.14a.478.478,0,0,1-.536-.792l3.536-2.4H35.474a.478.478,0,0,1-.389-.756l3.767-5.268H30.039L27.626,35h2.111a.478.478,0,0,1,.423.7l-4.547,8.681L24.4,46.386l4.59-3.213a.473.473,0,0,1,.267-.082.478.478,0,0,1,.269.874l-5.837,3.954A.478.478,0,0,1,23,47.3l5.944-11.348H26.868a.478.478,0,0,1-.432-.683l2.543-5.34H20.045L16.337,35h4.795a.478.478,0,0,1,.268.874L16.573,39.14a.478.478,0,0,1-.536-.792l3.536-2.4H15.394a.478.478,0,0,1-.386-.76c.089-.125,3.632-4.966,5.75-7.859,1.747-2.386,1.747-2.386,1.754-2.4l.5-.745H12.824L7.554,35h2.1a.478.478,0,0,1,.424.7L4.292,46.386l1.933-1.391,2.69-1.822a.478.478,0,1,1,.536.792L3.615,47.919A.475.475,0,0,1,3.347,48ZM24,23.236a.478.478,0,0,1,.386.761l-3.641,4.977H38.629a8.386,8.386,0,0,0,8.414-8.127,8.386,8.386,0,0,0-8.414-8.128A8.137,8.137,0,0,0,30.5,20.846a.478.478,0,0,1-.956,0,9.1,9.1,0,0,1,8.137-9.035l.468-.049-.041-.469a11.282,11.282,0,0,0-22.524.946.478.478,0,0,1-.956,0,11.683,11.683,0,0,1,.143-1.809l.078-.5-.5-.052a6.794,6.794,0,0,0-.713-.037,6.993,6.993,0,0,0-4.846,1.972,6.486,6.486,0,0,0-1.964,6.068.478.478,0,0,1-.469.573H6.216a5.259,5.259,0,1,0,0,10.518H9.428L12.1,23.5a.481.481,0,0,1,.43-.268Z" transform="translate(0 -0.001)" fill="#03306e"/>
        <path id="Path_8992" data-name="Path 8992" d="M212.461,267.5a.478.478,0,1,1,.478-.478.479.479,0,0,1-.478.478" transform="translate(-179.664 -225.91)" fill="#03306e"/>
        <path id="Path_8993" data-name="Path 8993" d="M80.755,267.5a.478.478,0,1,1,.478-.478.479.479,0,0,1-.478.478" transform="translate(-68.038 -225.91)" fill="#03306e"/>
      </g>
    </g>
  </g>
</svg>
