<svg xmlns="http://www.w3.org/2000/svg" width="23.862" height="23.977" viewBox="0 0 23.862 23.977">
  <g id="Group_5180" data-name="Group 5180" transform="translate(-1319.593 -125.501)">
    <g id="WhatsApp_Logo" data-name="WhatsApp Logo" transform="translate(1319.593 125.501)">
      <path id="WA_Logo" data-name="WA Logo" d="M1.686,17.82a11.881,11.881,0,1,1,10.3,5.951h0A11.871,11.871,0,0,1,6.3,22.325L0,23.977Zm5.265,2.568a9.861,9.861,0,0,0,5.026,1.376h0a9.876,9.876,0,1,0-8.365-4.628l.235.374-1,3.644,3.738-.98Zm6.969-2.967a17.061,17.061,0,0,1-1.692-.625,13.234,13.234,0,0,1-5.071-4.483A5.775,5.775,0,0,1,5.944,9.242,3.329,3.329,0,0,1,6.983,6.765a1.091,1.091,0,0,1,.792-.371c.2,0,.4,0,.569.01H8.41c.173,0,.388,0,.6.509.247.594.841,2.056.915,2.2a.547.547,0,0,1,.025.52,2.028,2.028,0,0,1-.3.5c-.148.173-.312.387-.445.52-.149.148-.3.309-.13.606a8.945,8.945,0,0,0,1.651,2.057,8.108,8.108,0,0,0,2.387,1.474c.3.149.47.124.643-.074s.742-.867.94-1.164.4-.248.668-.149,1.732.817,2.029.966.495.223.569.347a2.482,2.482,0,0,1-.173,1.412,3.057,3.057,0,0,1-2,1.412,4.852,4.852,0,0,1-.721.057A3.766,3.766,0,0,1,13.92,17.421Z" fill="#0a9f43"/>
    </g>
  </g>
</svg>
